<svg width="1086" height="163" viewBox="0 0 1086 163" fill="none" xmlns="http://www.w3.org/2000/svg">
<g filter="url(#filter0_d_2_11)">
<path fill-rule="evenodd" clip-rule="evenodd" d="M325.925 147.15C348.781 147.15 367.308 130.042 367.308 108.939C367.308 87.8354 348.781 70.7278 325.925 70.7278C303.07 70.7278 284.542 87.8354 284.542 108.939C284.542 130.042 303.07 147.15 325.925 147.15Z" fill="white"/>
</g>
<path d="M341.065 99.6919C339.864 100.178 338.584 100.501 337.25 100.657C338.623 99.9006 339.671 98.7114 340.163 97.278C338.883 97.9826 337.47 98.4803 335.964 98.758C334.749 97.5632 333.017 96.8232 331.127 96.8232C327.461 96.8232 324.51 99.5707 324.51 102.939C324.51 103.423 324.555 103.889 324.664 104.333C319.159 104.085 314.287 101.649 311.015 97.9379C310.444 98.8531 310.109 99.9006 310.109 101.028C310.109 103.146 311.29 105.023 313.05 106.109C311.986 106.091 310.943 105.806 310.058 105.356C310.058 105.375 310.058 105.399 310.058 105.423C310.058 108.395 312.354 110.862 315.363 111.431C314.824 111.567 314.237 111.632 313.627 111.632C313.203 111.632 312.775 111.61 312.374 111.528C313.232 113.949 315.666 115.729 318.561 115.787C316.308 117.414 313.448 118.395 310.351 118.395C309.808 118.395 309.287 118.372 308.766 118.311C311.7 120.057 315.176 121.055 318.924 121.055C331.109 121.055 337.771 111.735 337.771 103.656C337.771 103.386 337.761 103.125 337.747 102.866C339.061 102.005 340.165 100.93 341.065 99.6919Z" fill="#080809"/>
<g filter="url(#filter1_d_2_11)">
<path fill-rule="evenodd" clip-rule="evenodd" d="M51.3832 143.422C74.2385 143.422 92.7664 126.314 92.7664 105.211C92.7664 84.1076 74.2385 67 51.3832 67C28.5279 67 10 84.1076 10 105.211C10 126.314 28.5279 143.422 51.3832 143.422Z" fill="white"/>
</g>
<path fill-rule="evenodd" clip-rule="evenodd" d="M56.6487 101.007C56.0026 100.818 55.2595 100.692 54.5811 100.692C53.7412 100.692 51.9321 101.227 51.9321 102.265V104.75H56.2287V108.934H51.9321V120.478H47.6032V108.934H45.471V104.75H47.6032V102.642C47.6032 99.4655 49.0892 96.8232 52.6751 96.8232C53.9027 96.8232 56.0995 96.8862 57.2948 97.2951L56.6487 101.007Z" fill="#080809"/>
<g filter="url(#filter2_d_2_11)">
<path fill-rule="evenodd" clip-rule="evenodd" d="M188.654 150.878C213.739 150.878 234.075 132.101 234.075 108.939C234.075 85.7766 213.739 67 188.654 67C163.569 67 143.234 85.7766 143.234 108.939C143.234 132.101 163.569 150.878 188.654 150.878Z" fill="url(#paint0_angular_2_11)"/>
</g>
<g clip-path="url(#clip0_2_11)">
<path d="M201.082 93.0952H178.245C175.637 93.0952 173.514 95.0553 173.514 97.4638V118.55C173.514 120.959 175.637 122.918 178.245 122.918H201.082C203.691 122.918 205.813 120.959 205.813 118.55V97.4638C205.813 95.0553 203.691 93.0952 201.082 93.0952ZM203.921 118.55C203.921 119.995 202.647 121.171 201.082 121.171H178.245C176.68 121.171 175.407 119.995 175.407 118.55V97.4638C175.407 96.0187 176.68 94.8427 178.245 94.8427H201.082C202.647 94.8427 203.921 96.0187 203.921 97.4638V118.55Z" fill="white"/>
<path d="M200.072 96.6484C199.029 96.6484 198.18 97.4325 198.18 98.3959C198.18 99.3593 199.029 100.143 200.072 100.143C201.116 100.143 201.965 99.3593 201.965 98.3959C201.965 97.4325 201.116 96.6484 200.072 96.6484Z" fill="white"/>
<path d="M189.664 100.143C184.968 100.143 181.147 103.671 181.147 108.007C181.147 112.343 184.968 115.87 189.664 115.87C194.36 115.87 198.18 112.343 198.18 108.007C198.18 103.671 194.36 100.143 189.664 100.143ZM189.664 114.123C186.011 114.123 183.04 111.379 183.04 108.007C183.04 104.634 186.011 101.891 189.664 101.891C193.316 101.891 196.287 104.634 196.287 108.007C196.287 111.379 193.316 114.123 189.664 114.123Z" fill="white"/>
</g>
<path d="M791.04 6.1C792.52 6.1 793.813 6.38667 794.92 6.96C796.04 7.52 796.9 8.33333 797.5 9.4C798.113 10.4533 798.42 11.6867 798.42 13.1C798.42 14.5133 798.113 15.74 797.5 16.78C796.9 17.82 796.04 18.62 794.92 19.18C793.813 19.7267 792.52 20 791.04 20H786.5V6.1H791.04ZM791.04 18.14C792.667 18.14 793.913 17.7 794.78 16.82C795.647 15.94 796.08 14.7 796.08 13.1C796.08 11.4867 795.647 10.2267 794.78 9.32C793.913 8.41333 792.667 7.96 791.04 7.96H788.78V18.14H791.04ZM801.94 7.52C801.526 7.52 801.18 7.38 800.9 7.1C800.62 6.82 800.48 6.47333 800.48 6.06C800.48 5.64667 800.62 5.3 800.9 5.02C801.18 4.74 801.526 4.6 801.94 4.6C802.34 4.6 802.68 4.74 802.96 5.02C803.24 5.3 803.38 5.64667 803.38 6.06C803.38 6.47333 803.24 6.82 802.96 7.1C802.68 7.38 802.34 7.52 801.94 7.52ZM803.06 8.98V20H800.78V8.98H803.06ZM810.153 20.18C809.286 20.18 808.506 20.0267 807.813 19.72C807.133 19.4 806.593 18.9733 806.193 18.44C805.793 17.8933 805.58 17.2867 805.553 16.62H807.913C807.953 17.0867 808.173 17.48 808.573 17.8C808.986 18.1067 809.5 18.26 810.113 18.26C810.753 18.26 811.246 18.14 811.593 17.9C811.953 17.6467 812.133 17.3267 812.133 16.94C812.133 16.5267 811.933 16.22 811.533 16.02C811.146 15.82 810.526 15.6 809.673 15.36C808.846 15.1333 808.173 14.9133 807.653 14.7C807.133 14.4867 806.68 14.16 806.293 13.72C805.92 13.28 805.733 12.7 805.733 11.98C805.733 11.3933 805.906 10.86 806.253 10.38C806.6 9.88667 807.093 9.5 807.733 9.22C808.386 8.94 809.133 8.8 809.973 8.8C811.226 8.8 812.233 9.12 812.993 9.76C813.766 10.3867 814.18 11.2467 814.233 12.34H811.953C811.913 11.8467 811.713 11.4533 811.353 11.16C810.993 10.8667 810.506 10.72 809.893 10.72C809.293 10.72 808.833 10.8333 808.513 11.06C808.193 11.2867 808.033 11.5867 808.033 11.96C808.033 12.2533 808.14 12.5 808.353 12.7C808.566 12.9 808.826 13.06 809.133 13.18C809.44 13.2867 809.893 13.4267 810.493 13.6C811.293 13.8133 811.946 14.0333 812.453 14.26C812.973 14.4733 813.42 14.7933 813.793 15.22C814.166 15.6467 814.36 16.2133 814.373 16.92C814.373 17.5467 814.2 18.1067 813.853 18.6C813.506 19.0933 813.013 19.48 812.373 19.76C811.746 20.04 811.006 20.18 810.153 20.18ZM816.177 14.48C816.177 13.3467 816.403 12.3533 816.857 11.5C817.323 10.6333 817.963 9.96667 818.777 9.5C819.59 9.03333 820.523 8.8 821.577 8.8C822.91 8.8 824.01 9.12 824.877 9.76C825.757 10.3867 826.35 11.2867 826.657 12.46H824.197C823.997 11.9133 823.677 11.4867 823.237 11.18C822.797 10.8733 822.243 10.72 821.577 10.72C820.643 10.72 819.897 11.0533 819.337 11.72C818.79 12.3733 818.517 13.2933 818.517 14.48C818.517 15.6667 818.79 16.5933 819.337 17.26C819.897 17.9267 820.643 18.26 821.577 18.26C822.897 18.26 823.77 17.68 824.197 16.52H826.657C826.337 17.64 825.737 18.5333 824.857 19.2C823.977 19.8533 822.883 20.18 821.577 20.18C820.523 20.18 819.59 19.9467 818.777 19.48C817.963 19 817.323 18.3333 816.857 17.48C816.403 16.6133 816.177 15.6133 816.177 14.48ZM833.809 20.18C832.769 20.18 831.829 19.9467 830.989 19.48C830.149 19 829.489 18.3333 829.009 17.48C828.529 16.6133 828.289 15.6133 828.289 14.48C828.289 13.36 828.536 12.3667 829.029 11.5C829.522 10.6333 830.196 9.96667 831.049 9.5C831.902 9.03333 832.856 8.8 833.909 8.8C834.962 8.8 835.916 9.03333 836.769 9.5C837.622 9.96667 838.296 10.6333 838.789 11.5C839.282 12.3667 839.529 13.36 839.529 14.48C839.529 15.6 839.276 16.5933 838.769 17.46C838.262 18.3267 837.569 19 836.689 19.48C835.822 19.9467 834.862 20.18 833.809 20.18ZM833.809 18.2C834.396 18.2 834.942 18.06 835.449 17.78C835.969 17.5 836.389 17.08 836.709 16.52C837.029 15.96 837.189 15.28 837.189 14.48C837.189 13.68 837.036 13.0067 836.729 12.46C836.422 11.9 836.016 11.48 835.509 11.2C835.002 10.92 834.456 10.78 833.869 10.78C833.282 10.78 832.736 10.92 832.229 11.2C831.736 11.48 831.342 11.9 831.049 12.46C830.756 13.0067 830.609 13.68 830.609 14.48C830.609 15.6667 830.909 16.5867 831.509 17.24C832.122 17.88 832.889 18.2 833.809 18.2ZM846.143 17.96L849.263 8.98H851.683L847.483 20H844.763L840.583 8.98H843.023L846.143 17.96ZM863.606 14.22C863.606 14.6333 863.58 15.0067 863.526 15.34H855.106C855.173 16.22 855.5 16.9267 856.086 17.46C856.673 17.9933 857.393 18.26 858.246 18.26C859.473 18.26 860.34 17.7467 860.846 16.72H863.306C862.973 17.7333 862.366 18.5667 861.486 19.22C860.62 19.86 859.54 20.18 858.246 20.18C857.193 20.18 856.246 19.9467 855.406 19.48C854.58 19 853.926 18.3333 853.446 17.48C852.98 16.6133 852.746 15.6133 852.746 14.48C852.746 13.3467 852.973 12.3533 853.426 11.5C853.893 10.6333 854.54 9.96667 855.366 9.5C856.206 9.03333 857.166 8.8 858.246 8.8C859.286 8.8 860.213 9.02667 861.026 9.48C861.84 9.93333 862.473 10.5733 862.926 11.4C863.38 12.2133 863.606 13.1533 863.606 14.22ZM861.226 13.5C861.213 12.66 860.913 11.9867 860.326 11.48C859.74 10.9733 859.013 10.72 858.146 10.72C857.36 10.72 856.686 10.9733 856.126 11.48C855.566 11.9733 855.233 12.6467 855.126 13.5H861.226ZM868.23 10.58C868.563 10.02 869.003 9.58667 869.55 9.28C870.11 8.96 870.77 8.8 871.53 8.8V11.16H870.95C870.057 11.16 869.377 11.3867 868.91 11.84C868.457 12.2933 868.23 13.08 868.23 14.2V20H865.95V8.98H868.23V10.58ZM883.801 20.18C882.761 20.18 881.821 19.9467 880.981 19.48C880.141 19 879.481 18.3333 879.001 17.48C878.521 16.6133 878.281 15.6133 878.281 14.48C878.281 13.36 878.528 12.3667 879.021 11.5C879.514 10.6333 880.188 9.96667 881.041 9.5C881.894 9.03333 882.848 8.8 883.901 8.8C884.954 8.8 885.908 9.03333 886.761 9.5C887.614 9.96667 888.288 10.6333 888.781 11.5C889.274 12.3667 889.521 13.36 889.521 14.48C889.521 15.6 889.268 16.5933 888.761 17.46C888.254 18.3267 887.561 19 886.681 19.48C885.814 19.9467 884.854 20.18 883.801 20.18ZM883.801 18.2C884.388 18.2 884.934 18.06 885.441 17.78C885.961 17.5 886.381 17.08 886.701 16.52C887.021 15.96 887.181 15.28 887.181 14.48C887.181 13.68 887.028 13.0067 886.721 12.46C886.414 11.9 886.008 11.48 885.501 11.2C884.994 10.92 884.448 10.78 883.861 10.78C883.274 10.78 882.728 10.92 882.221 11.2C881.728 11.48 881.334 11.9 881.041 12.46C880.748 13.0067 880.601 13.68 880.601 14.48C880.601 15.6667 880.901 16.5867 881.501 17.24C882.114 17.88 882.881 18.2 883.801 18.2ZM901.855 8.98V20H899.575V18.7C899.215 19.1533 898.742 19.5133 898.155 19.78C897.582 20.0333 896.968 20.16 896.315 20.16C895.448 20.16 894.668 19.98 893.975 19.62C893.295 19.26 892.755 18.7267 892.355 18.02C891.968 17.3133 891.775 16.46 891.775 15.46V8.98H894.035V15.12C894.035 16.1067 894.282 16.8667 894.775 17.4C895.268 17.92 895.942 18.18 896.795 18.18C897.648 18.18 898.322 17.92 898.815 17.4C899.322 16.8667 899.575 16.1067 899.575 15.12V8.98H901.855ZM907.243 10.58C907.577 10.02 908.017 9.58667 908.563 9.28C909.123 8.96 909.783 8.8 910.543 8.8V11.16H909.963C909.07 11.16 908.39 11.3867 907.923 11.84C907.47 12.2933 907.243 13.08 907.243 14.2V20H904.963V8.98H907.243V10.58ZM922.034 20.18C921.168 20.18 920.388 20.0267 919.694 19.72C919.014 19.4 918.474 18.9733 918.074 18.44C917.674 17.8933 917.461 17.2867 917.434 16.62H919.794C919.834 17.0867 920.054 17.48 920.454 17.8C920.868 18.1067 921.381 18.26 921.994 18.26C922.634 18.26 923.128 18.14 923.474 17.9C923.834 17.6467 924.014 17.3267 924.014 16.94C924.014 16.5267 923.814 16.22 923.414 16.02C923.028 15.82 922.408 15.6 921.554 15.36C920.728 15.1333 920.054 14.9133 919.534 14.7C919.014 14.4867 918.561 14.16 918.174 13.72C917.801 13.28 917.614 12.7 917.614 11.98C917.614 11.3933 917.788 10.86 918.134 10.38C918.481 9.88667 918.974 9.5 919.614 9.22C920.268 8.94 921.014 8.8 921.854 8.8C923.108 8.8 924.114 9.12 924.874 9.76C925.648 10.3867 926.061 11.2467 926.114 12.34H923.834C923.794 11.8467 923.594 11.4533 923.234 11.16C922.874 10.8667 922.388 10.72 921.774 10.72C921.174 10.72 920.714 10.8333 920.394 11.06C920.074 11.2867 919.914 11.5867 919.914 11.96C919.914 12.2533 920.021 12.5 920.234 12.7C920.448 12.9 920.708 13.06 921.014 13.18C921.321 13.2867 921.774 13.4267 922.374 13.6C923.174 13.8133 923.828 14.0333 924.334 14.26C924.854 14.4733 925.301 14.7933 925.674 15.22C926.048 15.6467 926.241 16.2133 926.254 16.92C926.254 17.5467 926.081 18.1067 925.734 18.6C925.388 19.0933 924.894 19.48 924.254 19.76C923.628 20.04 922.888 20.18 922.034 20.18ZM933.598 20.18C932.558 20.18 931.618 19.9467 930.778 19.48C929.938 19 929.278 18.3333 928.798 17.48C928.318 16.6133 928.078 15.6133 928.078 14.48C928.078 13.36 928.325 12.3667 928.818 11.5C929.311 10.6333 929.985 9.96667 930.838 9.5C931.691 9.03333 932.645 8.8 933.698 8.8C934.751 8.8 935.705 9.03333 936.558 9.5C937.411 9.96667 938.085 10.6333 938.578 11.5C939.071 12.3667 939.318 13.36 939.318 14.48C939.318 15.6 939.065 16.5933 938.558 17.46C938.051 18.3267 937.358 19 936.478 19.48C935.611 19.9467 934.651 20.18 933.598 20.18ZM933.598 18.2C934.185 18.2 934.731 18.06 935.238 17.78C935.758 17.5 936.178 17.08 936.498 16.52C936.818 15.96 936.978 15.28 936.978 14.48C936.978 13.68 936.825 13.0067 936.518 12.46C936.211 11.9 935.805 11.48 935.298 11.2C934.791 10.92 934.245 10.78 933.658 10.78C933.071 10.78 932.525 10.92 932.018 11.2C931.525 11.48 931.131 11.9 930.838 12.46C930.545 13.0067 930.398 13.68 930.398 14.48C930.398 15.6667 930.698 16.5867 931.298 17.24C931.911 17.88 932.678 18.2 933.598 18.2ZM943.952 5.2V20H941.672V5.2H943.952ZM957.025 8.98V20H954.745V18.7C954.385 19.1533 953.912 19.5133 953.325 19.78C952.752 20.0333 952.139 20.16 951.485 20.16C950.619 20.16 949.839 19.98 949.145 19.62C948.465 19.26 947.925 18.7267 947.525 18.02C947.139 17.3133 946.945 16.46 946.945 15.46V8.98H949.205V15.12C949.205 16.1067 949.452 16.8667 949.945 17.4C950.439 17.92 951.112 18.18 951.965 18.18C952.819 18.18 953.492 17.92 953.985 17.4C954.492 16.8667 954.745 16.1067 954.745 15.12V8.98H957.025ZM962.794 10.84V16.94C962.794 17.3533 962.887 17.6533 963.074 17.84C963.274 18.0133 963.607 18.1 964.074 18.1H965.474V20H963.674C962.647 20 961.86 19.76 961.314 19.28C960.767 18.8 960.494 18.02 960.494 16.94V10.84H959.194V8.98H960.494V6.24H962.794V8.98H965.474V10.84H962.794ZM968.835 7.52C968.422 7.52 968.075 7.38 967.795 7.1C967.515 6.82 967.375 6.47333 967.375 6.06C967.375 5.64667 967.515 5.3 967.795 5.02C968.075 4.74 968.422 4.6 968.835 4.6C969.235 4.6 969.575 4.74 969.855 5.02C970.135 5.3 970.275 5.64667 970.275 6.06C970.275 6.47333 970.135 6.82 969.855 7.1C969.575 7.38 969.235 7.52 968.835 7.52ZM969.955 8.98V20H967.675V8.98H969.955ZM977.828 20.18C976.788 20.18 975.848 19.9467 975.008 19.48C974.168 19 973.508 18.3333 973.028 17.48C972.548 16.6133 972.308 15.6133 972.308 14.48C972.308 13.36 972.555 12.3667 973.048 11.5C973.542 10.6333 974.215 9.96667 975.068 9.5C975.922 9.03333 976.875 8.8 977.928 8.8C978.982 8.8 979.935 9.03333 980.788 9.5C981.642 9.96667 982.315 10.6333 982.808 11.5C983.302 12.3667 983.548 13.36 983.548 14.48C983.548 15.6 983.295 16.5933 982.788 17.46C982.282 18.3267 981.588 19 980.708 19.48C979.842 19.9467 978.882 20.18 977.828 20.18ZM977.828 18.2C978.415 18.2 978.962 18.06 979.468 17.78C979.988 17.5 980.408 17.08 980.728 16.52C981.048 15.96 981.208 15.28 981.208 14.48C981.208 13.68 981.055 13.0067 980.748 12.46C980.442 11.9 980.035 11.48 979.528 11.2C979.022 10.92 978.475 10.78 977.888 10.78C977.302 10.78 976.755 10.92 976.248 11.2C975.755 11.48 975.362 11.9 975.068 12.46C974.775 13.0067 974.628 13.68 974.628 14.48C974.628 15.6667 974.928 16.5867 975.528 17.24C976.142 17.88 976.908 18.2 977.828 18.2ZM991.462 8.8C992.329 8.8 993.102 8.98 993.782 9.34C994.476 9.7 995.016 10.2333 995.402 10.94C995.789 11.6467 995.982 12.5 995.982 13.5V20H993.722V13.84C993.722 12.8533 993.476 12.1 992.982 11.58C992.489 11.0467 991.816 10.78 990.962 10.78C990.109 10.78 989.429 11.0467 988.922 11.58C988.429 12.1 988.182 12.8533 988.182 13.84V20H985.902V8.98H988.182V10.24C988.556 9.78667 989.029 9.43333 989.602 9.18C990.189 8.92667 990.809 8.8 991.462 8.8ZM1002.99 20.18C1002.12 20.18 1001.34 20.0267 1000.65 19.72C999.971 19.4 999.431 18.9733 999.031 18.44C998.631 17.8933 998.417 17.2867 998.391 16.62H1000.75C1000.79 17.0867 1001.01 17.48 1001.41 17.8C1001.82 18.1067 1002.34 18.26 1002.95 18.26C1003.59 18.26 1004.08 18.14 1004.43 17.9C1004.79 17.6467 1004.97 17.3267 1004.97 16.94C1004.97 16.5267 1004.77 16.22 1004.37 16.02C1003.98 15.82 1003.36 15.6 1002.51 15.36C1001.68 15.1333 1001.01 14.9133 1000.49 14.7C999.971 14.4867 999.517 14.16 999.131 13.72C998.757 13.28 998.571 12.7 998.571 11.98C998.571 11.3933 998.744 10.86 999.091 10.38C999.437 9.88667 999.931 9.5 1000.57 9.22C1001.22 8.94 1001.97 8.8 1002.81 8.8C1004.06 8.8 1005.07 9.12 1005.83 9.76C1006.6 10.3867 1007.02 11.2467 1007.07 12.34H1004.79C1004.75 11.8467 1004.55 11.4533 1004.19 11.16C1003.83 10.8667 1003.34 10.72 1002.73 10.72C1002.13 10.72 1001.67 10.8333 1001.35 11.06C1001.03 11.2867 1000.87 11.5867 1000.87 11.96C1000.87 12.2533 1000.98 12.5 1001.19 12.7C1001.4 12.9 1001.66 13.06 1001.97 13.18C1002.28 13.2867 1002.73 13.4267 1003.33 13.6C1004.13 13.8133 1004.78 14.0333 1005.29 14.26C1005.81 14.4733 1006.26 14.7933 1006.63 15.22C1007 15.6467 1007.2 16.2133 1007.21 16.92C1007.21 17.5467 1007.04 18.1067 1006.69 18.6C1006.34 19.0933 1005.85 19.48 1005.21 19.76C1004.58 20.04 1003.84 20.18 1002.99 20.18Z" fill="white"/>
<rect x="654" y="76.762" width="216" height="65.2381" rx="17.5" fill="#080809"/>
<g clip-path="url(#clip1_2_11)">
<path d="M711.548 108.452L691.273 126.479C690.323 125.88 689.76 124.883 689.77 123.821V93.083C689.76 92.0212 690.323 91.0247 691.273 90.4255L711.548 108.452Z" fill="#2196F3"/>
<path d="M718.642 102.156L711.548 108.452L691.273 90.4257C691.349 90.371 691.429 90.3201 691.511 90.2733C692.583 89.6737 693.921 89.6543 695.013 90.2225L718.642 102.156Z" fill="#4CAF50"/>
<path d="M727.24 108.452C727.253 109.651 726.547 110.758 725.406 111.33L718.642 114.749L711.548 108.452L718.642 102.156L725.406 105.575C726.547 106.147 727.253 107.254 727.24 108.452Z" fill="#F0BB1F"/>
<path d="M718.642 114.749L695.013 126.682C693.919 127.242 692.585 127.222 691.511 126.631C691.429 126.585 691.349 126.534 691.273 126.479L711.548 108.452L718.642 114.749Z" fill="#F15A2B"/>
</g>
<path d="M750.946 98.9058H745.277V100.993H748.297C747.893 101.993 746.908 102.604 745.406 102.604C743.21 102.604 741.853 101.307 741.853 99.5321C741.853 97.698 743.275 96.4007 745.18 96.4007C746.456 96.4007 747.473 96.9375 747.942 97.6234L750.138 96.4603C749.185 95.0586 747.36 94.0745 745.196 94.0745C741.87 94.0745 739.27 96.4901 739.27 99.5172C739.27 102.514 741.821 104.93 745.374 104.93C748.539 104.93 750.946 102.992 750.946 99.8005V98.9058Z" fill="white"/>
<path d="M754.179 102.425V100.576H758.216V98.3093H754.179V96.5796H758.62V94.2832H751.595V104.721H758.701V102.425H754.179Z" fill="white"/>
<path d="M766.941 94.2832H758.544V96.5796H761.451V104.721H764.034V96.5796H766.941V94.2832Z" fill="white"/>
<path d="M770.495 94.2832V104.721H773.079V94.2832H770.495Z" fill="white"/>
<path d="M781.804 94.2832H773.406V96.5796H776.313V104.721H778.897V96.5796H781.804V94.2832Z" fill="white"/>
<path d="M790.751 104.93C793.998 104.93 796.63 102.574 796.63 99.5023C796.63 96.4305 793.998 94.0745 790.751 94.0745C787.505 94.0745 784.873 96.4305 784.873 99.5023C784.873 102.574 787.505 104.93 790.751 104.93ZM790.751 102.604C788.91 102.604 787.457 101.366 787.457 99.5023C787.457 97.6383 788.91 96.4007 790.751 96.4007C792.593 96.4007 794.046 97.6383 794.046 99.5023C794.046 101.366 792.593 102.604 790.751 102.604Z" fill="white"/>
<path d="M803.576 94.2832V99.9496L799.215 94.2832H797.277V104.721H799.861V99.0549L804.222 104.721H806.16V94.2832H803.576Z" fill="white"/>
<path d="M750.946 116.636V117.038C750.946 118.341 750.445 119.439 749.444 120.334C748.442 121.218 747.124 121.661 745.487 121.661C743.764 121.661 742.343 121.144 741.224 120.11C740.104 119.066 739.544 117.789 739.544 116.278C739.544 114.767 740.099 113.494 741.207 112.46C742.316 111.417 743.721 110.895 745.423 110.895C746.456 110.895 747.404 111.123 748.265 111.581C749.137 112.038 749.81 112.649 750.284 113.415L749.524 113.832C749.148 113.176 748.588 112.649 747.845 112.252C747.113 111.854 746.305 111.655 745.423 111.655C743.958 111.655 742.752 112.103 741.805 112.997C740.868 113.882 740.4 114.976 740.4 116.278C740.4 117.58 740.874 118.679 741.821 119.573C742.769 120.458 743.991 120.9 745.487 120.9C746.811 120.9 747.883 120.567 748.701 119.901C749.519 119.235 749.977 118.395 750.074 117.381H745.277V116.636H750.946Z" fill="white"/>
<path d="M762.409 120.095C761.279 121.139 759.9 121.661 758.275 121.661C756.649 121.661 755.271 121.139 754.14 120.095C753.01 119.041 752.445 117.769 752.445 116.278C752.445 114.787 753.01 113.519 754.14 112.475C755.271 111.422 756.649 110.895 758.275 110.895C759.9 110.895 761.279 111.422 762.409 112.475C763.54 113.519 764.105 114.787 764.105 116.278C764.105 117.769 763.54 119.041 762.409 120.095ZM754.738 119.558C755.707 120.453 756.886 120.9 758.275 120.9C759.664 120.9 760.837 120.453 761.795 119.558C762.764 118.654 763.249 117.56 763.249 116.278C763.249 114.995 762.764 113.907 761.795 113.012C760.837 112.108 759.664 111.655 758.275 111.655C756.886 111.655 755.707 112.108 754.738 113.012C753.78 113.907 753.301 114.995 753.301 116.278C753.301 117.56 753.78 118.654 754.738 119.558Z" fill="white"/>
<path d="M775.594 120.095C774.463 121.139 773.085 121.661 771.459 121.661C769.834 121.661 768.456 121.139 767.325 120.095C766.195 119.041 765.629 117.769 765.629 116.278C765.629 114.787 766.195 113.519 767.325 112.475C768.456 111.422 769.834 110.895 771.459 110.895C773.085 110.895 774.463 111.422 775.594 112.475C776.724 113.519 777.289 114.787 777.289 116.278C777.289 117.769 776.724 119.041 775.594 120.095ZM767.923 119.558C768.892 120.453 770.07 120.9 771.459 120.9C772.848 120.9 774.022 120.453 774.98 119.558C775.949 118.654 776.433 117.56 776.433 116.278C776.433 114.995 775.949 113.907 774.98 113.012C774.022 112.108 772.848 111.655 771.459 111.655C770.07 111.655 768.892 112.108 767.923 113.012C766.964 113.907 766.485 114.995 766.485 116.278C766.485 117.56 766.964 118.654 767.923 119.558Z" fill="white"/>
<path d="M790.216 116.636V117.038C790.216 118.341 789.715 119.439 788.714 120.334C787.712 121.218 786.393 121.661 784.757 121.661C783.034 121.661 781.613 121.144 780.493 120.11C779.374 119.066 778.814 117.789 778.814 116.278C778.814 114.767 779.368 113.494 780.477 112.46C781.586 111.417 782.991 110.895 784.692 110.895C785.726 110.895 786.673 111.123 787.535 111.581C788.407 112.038 789.08 112.649 789.553 113.415L788.794 113.832C788.418 113.176 787.858 112.649 787.115 112.252C786.383 111.854 785.575 111.655 784.692 111.655C783.228 111.655 782.022 112.103 781.075 112.997C780.138 113.882 779.67 114.976 779.67 116.278C779.67 117.58 780.144 118.679 781.091 119.573C782.038 120.458 783.26 120.9 784.757 120.9C786.081 120.9 787.152 120.567 787.971 119.901C788.789 119.235 789.247 118.395 789.343 117.381H784.547V116.636H790.216Z" fill="white"/>
<path d="M793.217 120.751H798.546V121.497H792.361V111.059H793.217V120.751Z" fill="white"/>
<path d="M801.181 120.751H806.833V121.497H800.325V111.059H806.752V111.804H801.181V115.86H806.349V116.606H801.181V120.751Z" fill="white"/>
<path d="M817.085 111.059C818.097 111.059 818.937 111.367 819.604 111.983C820.272 112.6 820.606 113.37 820.606 114.295C820.606 115.219 820.272 115.989 819.604 116.606C818.937 117.212 818.097 117.515 817.085 117.515H814.097V121.497H813.241V111.059H817.085ZM817.085 116.77C817.86 116.77 818.495 116.536 818.991 116.069C819.497 115.602 819.75 115.01 819.75 114.295C819.75 113.569 819.497 112.972 818.991 112.505C818.495 112.038 817.86 111.804 817.085 111.804H814.097V116.77H817.085Z" fill="white"/>
<path d="M823.576 120.751H828.905V121.497H822.72V111.059H823.576V120.751Z" fill="white"/>
<path d="M838.606 121.497L837.508 118.843H831.839L830.741 121.497H829.837L834.23 111.059H835.134L839.51 121.497H838.606ZM832.162 118.097H837.201L834.682 112.028L832.162 118.097Z" fill="white"/>
<path d="M847.554 111.059L843.436 117.202V121.497H842.58V117.202L838.462 111.059H839.431L843.016 116.442L846.585 111.059H847.554Z" fill="white"/>
<rect x="884.131" y="76.762" width="201.869" height="65.2381" rx="17.5" fill="#080809"/>
<path d="M928.117 121.496C923.31 121.471 919.333 112.41 919.333 107.796C919.333 100.258 925.457 98.6079 927.817 98.6079C928.881 98.6079 930.017 98.9936 931.018 99.3348C931.719 99.5729 932.443 99.8187 932.846 99.8187C933.087 99.8187 933.656 99.6096 934.157 99.4262C935.227 99.0328 936.559 98.5439 938.11 98.5439C938.112 98.5439 938.116 98.5439 938.119 98.5439C939.277 98.5439 942.787 98.7786 944.898 101.705L945.392 102.391L944.681 102.887C943.664 103.595 941.81 104.887 941.81 107.446C941.81 110.477 943.91 111.642 944.919 112.203C945.365 112.45 945.826 112.705 945.826 113.263C945.826 113.628 942.676 121.451 938.103 121.451C936.984 121.451 936.193 121.14 935.495 120.867C934.789 120.589 934.18 120.35 933.174 120.35C932.664 120.35 932.019 120.573 931.336 120.809C930.403 121.131 929.347 121.496 928.148 121.496H928.117Z" fill="white"/>
<path d="M938.594 91.6736C938.713 95.6389 935.642 98.3898 932.574 98.2173C932.069 95.0529 935.642 91.6736 938.594 91.6736Z" fill="white"/>
<path d="M962.92 100.993H965.04L962.157 93.1649H959.686L956.804 100.993H958.923L959.347 99.7632H962.496L962.92 100.993ZM959.929 98.0857L960.922 95.2115L961.915 98.0857H959.929Z" fill="white"/>
<path d="M969.33 95.4016L968.07 98.9468L966.81 95.4016H964.8L967.04 100.993H969.099L971.34 95.4016H969.33Z" fill="white"/>
<path d="M976.167 95.4016V95.9272C975.767 95.5022 975.174 95.245 974.362 95.245C972.776 95.245 971.468 96.5311 971.468 98.1975C971.468 99.8639 972.776 101.15 974.362 101.15C975.174 101.15 975.767 100.893 976.167 100.468V100.993H977.984V95.4016H976.167ZM974.726 99.5619C973.89 99.5619 973.284 99.0363 973.284 98.1975C973.284 97.3587 973.89 96.8331 974.726 96.8331C975.561 96.8331 976.167 97.3587 976.167 98.1975C976.167 99.0363 975.561 99.5619 974.726 99.5619Z" fill="white"/>
<path d="M979.317 100.993H981.134V92.8293H979.317V100.993Z" fill="white"/>
<path d="M983.371 94.9095C983.965 94.9095 984.462 94.451 984.462 93.903C984.462 93.355 983.965 92.8964 983.371 92.8964C982.778 92.8964 982.281 93.355 982.281 93.903C982.281 94.451 982.778 94.9095 983.371 94.9095ZM982.463 100.993H984.28V95.4016H982.463V100.993Z" fill="white"/>
<path d="M989.231 95.245C988.419 95.245 987.826 95.5022 987.426 95.9272V93.1649H985.609V100.993H987.426V100.468C987.826 100.893 988.419 101.15 989.231 101.15C990.818 101.15 992.126 99.8639 992.126 98.1975C992.126 96.5311 990.818 95.245 989.231 95.245ZM988.868 99.5619C988.032 99.5619 987.426 99.0363 987.426 98.1975C987.426 97.3587 988.032 96.8331 988.868 96.8331C989.703 96.8331 990.309 97.3587 990.309 98.1975C990.309 99.0363 989.703 99.5619 988.868 99.5619Z" fill="white"/>
<path d="M993.156 100.993H994.973V92.8293H993.156V100.993Z" fill="white"/>
<path d="M997.925 98.8685H1002.22C1002.27 98.656 1002.3 98.4324 1002.3 98.1975C1002.3 96.5088 1000.99 95.245 999.221 95.245C997.307 95.245 995.999 96.5311 995.999 98.1975C995.999 99.8639 997.283 101.15 999.354 101.15C1000.51 101.15 1001.4 100.759 1001.99 99.9981L1000.54 99.2264C1000.3 99.4724 999.875 99.6514 999.379 99.6514C998.712 99.6514 998.155 99.4501 997.925 98.8685ZM997.889 97.616C998.058 97.0456 998.519 96.7324 999.209 96.7324C999.754 96.7324 1000.3 96.9673 1000.49 97.616H997.889Z" fill="white"/>
<path d="M1009.26 101.15C1011.04 101.15 1012.47 99.8639 1012.47 98.1975C1012.47 96.5311 1011.04 95.245 1009.26 95.245C1007.48 95.245 1006.05 96.5311 1006.05 98.1975C1006.05 99.8639 1007.48 101.15 1009.26 101.15ZM1009.26 99.5172C1008.48 99.5172 1007.87 98.9915 1007.87 98.1975C1007.87 97.4035 1008.48 96.8778 1009.26 96.8778C1010.05 96.8778 1010.66 97.4035 1010.66 98.1975C1010.66 98.9915 1010.05 99.5172 1009.26 99.5172Z" fill="white"/>
<path d="M1017.05 95.245C1016.25 95.245 1015.64 95.5134 1015.32 95.9272V95.4016H1013.5V100.993H1015.32V97.9403C1015.32 97.1462 1015.78 96.7884 1016.44 96.7884C1017.03 96.7884 1017.5 97.1127 1017.5 97.8061V100.993H1019.31V97.56C1019.31 96.0502 1018.27 95.245 1017.05 95.245Z" fill="white"/>
<path d="M1027.14 97.012V95.4016H1025.89V93.8359L1024.07 94.3391V95.4016H1023.11V97.012H1024.07V98.9915C1024.07 100.557 1024.76 101.217 1027.14 100.993V99.4724C1026.34 99.5172 1025.89 99.4724 1025.89 98.9915V97.012H1027.14Z" fill="white"/>
<path d="M1031.72 95.245C1030.92 95.245 1030.31 95.5134 1029.98 95.9272V93.1649H1028.17V100.993H1029.98V97.9403C1029.98 97.1462 1030.44 96.7884 1031.11 96.7884C1031.69 96.7884 1032.16 97.1127 1032.16 97.8061V100.993H1033.98V97.56C1033.98 96.0502 1032.94 95.245 1031.72 95.245Z" fill="white"/>
<path d="M1036.85 98.8685H1041.15C1041.2 98.656 1041.22 98.4324 1041.22 98.1975C1041.22 96.5088 1039.92 95.245 1038.15 95.245C1036.23 95.245 1034.93 96.5311 1034.93 98.1975C1034.93 99.8639 1036.21 101.15 1038.28 101.15C1039.43 101.15 1040.33 100.759 1040.92 99.9981L1039.47 99.2264C1039.23 99.4724 1038.8 99.6514 1038.31 99.6514C1037.64 99.6514 1037.08 99.4501 1036.85 98.8685ZM1036.82 97.616C1036.99 97.0456 1037.45 96.7324 1038.14 96.7324C1038.68 96.7324 1039.23 96.9673 1039.42 97.616H1036.82Z" fill="white"/>
<path d="M966.998 121.497H970.531L965.726 108.449H961.608L956.804 121.497H960.336L961.043 119.446H966.292L966.998 121.497ZM962.012 116.651L963.667 111.86L965.323 116.651H962.012Z" fill="white"/>
<path d="M977.671 111.916C976.318 111.916 975.329 112.345 974.663 113.053V112.177H971.635V125.225H974.663V120.621C975.329 121.329 976.318 121.758 977.671 121.758C980.315 121.758 982.495 119.614 982.495 116.837C982.495 114.06 980.315 111.916 977.671 111.916ZM977.065 119.111C975.672 119.111 974.663 118.235 974.663 116.837C974.663 115.439 975.672 114.563 977.065 114.563C978.458 114.563 979.467 115.439 979.467 116.837C979.467 118.235 978.458 119.111 977.065 119.111Z" fill="white"/>
<path d="M990.248 111.916C988.896 111.916 987.906 112.345 987.24 113.053V112.177H984.212V125.225H987.24V120.621C987.906 121.329 988.896 121.758 990.248 121.758C992.893 121.758 995.073 119.614 995.073 116.837C995.073 114.06 992.893 111.916 990.248 111.916ZM989.643 119.111C988.25 119.111 987.24 118.235 987.24 116.837C987.24 115.439 988.25 114.563 989.643 114.563C991.035 114.563 992.045 115.439 992.045 116.837C992.045 118.235 991.035 119.111 989.643 119.111Z" fill="white"/>
<path d="M996.79 121.497H999.818V107.89H996.79V121.497Z" fill="white"/>
<path d="M1004.74 117.955H1011.9C1011.99 117.601 1012.03 117.228 1012.03 116.837C1012.03 114.022 1009.85 111.916 1006.9 111.916C1003.71 111.916 1001.53 114.06 1001.53 116.837C1001.53 119.614 1003.67 121.758 1007.12 121.758C1009.04 121.758 1010.53 121.105 1011.52 119.838L1009.1 118.552C1008.7 118.962 1007.99 119.26 1007.16 119.26C1006.05 119.26 1005.12 118.925 1004.74 117.955ZM1004.68 115.868C1004.96 114.917 1005.73 114.395 1006.88 114.395C1007.79 114.395 1008.7 114.787 1009.02 115.868H1004.68Z" fill="white"/>
<path d="M1023.84 121.758C1026.91 121.758 1029.09 120.267 1029.09 117.75C1029.09 114.992 1026.68 114.302 1024.54 113.706C1022.34 113.09 1022 112.68 1022 112.084C1022 111.562 1022.5 111.096 1023.51 111.096C1024.81 111.096 1025.47 111.674 1025.96 112.606L1028.68 111.133C1027.65 109.213 1025.84 108.188 1023.51 108.188C1021.07 108.188 1018.77 109.642 1018.77 112.158C1018.77 114.656 1020.83 115.588 1022.93 116.129C1025.05 116.669 1025.86 116.986 1025.86 117.788C1025.86 118.291 1025.47 118.85 1023.94 118.85C1022.34 118.85 1021.48 118.123 1020.97 117.042L1018.18 118.533C1018.97 120.453 1020.87 121.758 1023.84 121.758Z" fill="white"/>
<path d="M1036.22 114.861V112.177H1034.14V109.568L1031.11 110.406V112.177H1029.5V114.861H1031.11V118.16C1031.11 120.77 1032.26 121.87 1036.22 121.497V118.962C1034.89 119.036 1034.14 118.962 1034.14 118.16V114.861H1036.22Z" fill="white"/>
<path d="M1042.58 121.758C1045.55 121.758 1047.93 119.614 1047.93 116.837C1047.93 114.06 1045.55 111.916 1042.58 111.916C1039.61 111.916 1037.23 114.06 1037.23 116.837C1037.23 119.614 1039.61 121.758 1042.58 121.758ZM1042.58 119.036C1041.27 119.036 1040.26 118.16 1040.26 116.837C1040.26 115.514 1041.27 114.638 1042.58 114.638C1043.89 114.638 1044.9 115.514 1044.9 116.837C1044.9 118.16 1043.89 119.036 1042.58 119.036Z" fill="white"/>
<path d="M1052.67 113.836V112.177H1049.64V121.497H1052.67V117.284C1052.67 115.439 1054.45 114.973 1055.7 115.159V111.991C1054.43 111.991 1053.07 112.587 1052.67 113.836Z" fill="white"/>
<path d="M1059.52 117.955H1066.69C1066.77 117.601 1066.81 117.228 1066.81 116.837C1066.81 114.022 1064.63 111.916 1061.68 111.916C1058.49 111.916 1056.31 114.06 1056.31 116.837C1056.31 119.614 1058.45 121.758 1061.91 121.758C1063.82 121.758 1065.32 121.105 1066.31 119.838L1063.88 118.552C1063.48 118.962 1062.77 119.26 1061.95 119.26C1060.84 119.26 1059.91 118.925 1059.52 117.955ZM1059.46 115.868C1059.75 114.917 1060.51 114.395 1061.66 114.395C1062.57 114.395 1063.48 114.787 1063.8 115.868H1059.46Z" fill="white"/>
<defs>
<filter id="filter0_d_2_11" x="274.542" y="62.7278" width="102.766" height="96.4219" filterUnits="userSpaceOnUse" color-interpolation-filters="sRGB">
<feFlood flood-opacity="0" result="BackgroundImageFix"/>
<feColorMatrix in="SourceAlpha" type="matrix" values="0 0 0 0 0 0 0 0 0 0 0 0 0 0 0 0 0 0 127 0" result="hardAlpha"/>
<feOffset dy="2"/>
<feGaussianBlur stdDeviation="5"/>
<feColorMatrix type="matrix" values="0 0 0 0 0 0 0 0 0 0 0 0 0 0 0 0 0 0 0.1 0"/>
<feBlend mode="normal" in2="BackgroundImageFix" result="effect1_dropShadow_2_11"/>
<feBlend mode="normal" in="SourceGraphic" in2="effect1_dropShadow_2_11" result="shape"/>
</filter>
<filter id="filter1_d_2_11" x="0" y="59" width="102.766" height="96.4219" filterUnits="userSpaceOnUse" color-interpolation-filters="sRGB">
<feFlood flood-opacity="0" result="BackgroundImageFix"/>
<feColorMatrix in="SourceAlpha" type="matrix" values="0 0 0 0 0 0 0 0 0 0 0 0 0 0 0 0 0 0 127 0" result="hardAlpha"/>
<feOffset dy="2"/>
<feGaussianBlur stdDeviation="5"/>
<feColorMatrix type="matrix" values="0 0 0 0 0 0 0 0 0 0 0 0 0 0 0 0 0 0 0.1 0"/>
<feBlend mode="normal" in2="BackgroundImageFix" result="effect1_dropShadow_2_11"/>
<feBlend mode="normal" in="SourceGraphic" in2="effect1_dropShadow_2_11" result="shape"/>
</filter>
<filter id="filter2_d_2_11" x="133.234" y="59" width="110.841" height="103.877" filterUnits="userSpaceOnUse" color-interpolation-filters="sRGB">
<feFlood flood-opacity="0" result="BackgroundImageFix"/>
<feColorMatrix in="SourceAlpha" type="matrix" values="0 0 0 0 0 0 0 0 0 0 0 0 0 0 0 0 0 0 127 0" result="hardAlpha"/>
<feOffset dy="2"/>
<feGaussianBlur stdDeviation="5"/>
<feColorMatrix type="matrix" values="0 0 0 0 0 0 0 0 0 0 0 0 0 0 0 0 0 0 0.1 0"/>
<feBlend mode="normal" in2="BackgroundImageFix" result="effect1_dropShadow_2_11"/>
<feBlend mode="normal" in="SourceGraphic" in2="effect1_dropShadow_2_11" result="shape"/>
</filter>
<radialGradient id="paint0_angular_2_11" cx="0" cy="0" r="1" gradientUnits="userSpaceOnUse" gradientTransform="translate(188.654 108.939) rotate(90) scale(0.931973 1.00935)">
<stop stop-color="#80A4CE"/>
<stop offset="0.166667" stop-color="#F289AA"/>
<stop offset="0.294697" stop-color="#C68BF0"/>
<stop offset="0.427083" stop-color="#D164DA"/>
<stop offset="0.614583" stop-color="#C963E8"/>
<stop offset="0.71875" stop-color="#BFC2E8"/>
<stop offset="0.802083" stop-color="#FFC999"/>
<stop offset="0.875" stop-color="#D0D8C9"/>
<stop offset="0.928149" stop-color="#BAD0F1"/>
<stop offset="0.997133" stop-color="#CED8CB"/>
<stop offset="1" stop-color="white" stop-opacity="0"/>
</radialGradient>
<clipPath id="clip0_2_11">
<rect width="32.2991" height="29.8231" fill="white" transform="translate(173.514 93.0952)"/>
</clipPath>
<clipPath id="clip1_2_11">
<rect width="40.3738" height="37.2789" fill="white" transform="translate(688.318 89.8096)"/>
</clipPath>
</defs>
</svg>
